<svg xmlns="http://www.w3.org/2000/svg" xmlns:xlink="http://www.w3.org/1999/xlink" width="231" height="131" viewBox="0 0 231 131"><defs><rect id="a" width="16.889" height="16.847" y="7.065" rx="8"/></defs><g fill="none" fill-rule="evenodd"><ellipse cx="180.333" cy="78.799" fill="#F8FAFD" rx="50.667" ry="50.54"/><ellipse cx="64.833" cy="64.67" fill="#F8FAFD" rx="64.833" ry="64.67"/><g transform="translate(166.712 30.433)"><path stroke="#46465F" stroke-linecap="round" stroke-linejoin="round" d="M18.251 6.793l4.631-2.989m-7.355 1.359L16.89 0m6.537 10.869l-4.359-1.087"/><rect width="16.889" height="16.847" x="1.09" y="8.152" fill="#DDE2E6" rx="8.423"/><use fill="#5698D3" xlink:href="#a"/><rect width="15.889" height="15.847" x=".5" y="7.565" stroke="#46465F" rx="7.923"/><path fill="#FFF" d="M4 15h9.262v1.087H4z"/><path fill="#FFF" d="M9.09 11v9.239H8V11"/></g><g transform="translate(80.632 42.932)"><ellipse cx="43.313" cy="43.204" fill="#FFF" stroke="#46465F" rx="43.313" ry="43.204"/><path fill="#DDE2E6" d="M20.948 9.551s6.497 15.841 10.828 18.002c4.331 2.16 11.55 2.16 12.272 4.32.722 2.16.722 4.32 1.444 5.04.722.72 1.443 1.44 1.443 2.88s-3.609 7.201 2.888 14.402c2.887 2.16 3.61 3.6 2.887 6.48-.721 2.88-4.33 9.361-2.887 10.801 1.444 1.44 5.053-.72 5.053-.72s6.497-4.32 7.94-6.48c1.444-2.16 5.054-6.48 6.498-7.2 1.443-.721 2.887-9.362 2.887-10.802 0-1.44-3.61-1.44-3.61-2.88s-5.052-9.36-5.774-9.36c-.722 0-3.61 0-4.332-.721-.721-.72-3.609-1.44-3.609-.72s-2.166 2.16-2.887 1.44l-1.444-1.44c-.722-.72-.722-2.16-1.444-2.16s-.36 2.16-1.444-.72c-1.082-2.88-.722-2.88-1.443-3.6-.722-.72-2.166-.72-2.166-.72h-1.444l-2.165-.72s-.722-.72-.722-1.44 0-2.881.722-2.881c.721 0 2.165-.72 2.887-.72s.722-.72 2.166 0c1.443.72 3.61 0 3.61 1.44s0 1.44.721 1.44c.722 0 2.166-1.44 2.166-2.16 0-.72 0-2.16.721-2.88.722-.72 5.054-5.76 15.16-9.361-3.61-2.88-14.438-6.48-25.266-6.48-10.828 0-21.656 7.92-21.656 7.92z"/><path fill="#5698D3" stroke="#46465F" d="M18.769 7.92s6.497 15.842 10.828 18.002c4.331 2.16 11.55 2.16 12.272 4.32.722 2.16.722 4.32 1.444 5.041.721.72 1.443 1.44 1.443 2.88s-3.61 7.2 2.888 14.401c2.887 2.16 3.61 3.6 2.887 6.481-.722 2.88-4.331 9.36-2.887 10.801 1.444 1.44 5.053-.72 5.053-.72s6.497-4.32 7.94-6.48c1.444-2.16 5.054-6.481 6.497-7.201 1.444-.72 2.888-9.361 2.888-10.801 0-1.44-3.61-1.44-3.61-2.88s-5.053-9.361-5.775-9.361c-.721 0-3.609 0-4.33-.72-.723-.72-3.61-1.44-3.61-.72s-2.166 2.16-2.888 1.44l-1.443-1.44c-.722-.72-.722-2.16-1.444-2.16s-.361 2.16-1.444-.72-.722-2.88-1.444-3.6c-.721-.721-2.165-.721-2.165-.721h-1.444l-2.166-.72s-.721-.72-.721-1.44 0-2.88.721-2.88c.722 0 2.166-.72 2.888-.72s.722-.72 2.166 0c1.443.72 3.609 0 3.609 1.44s0 1.44.722 1.44 2.165-1.44 2.165-2.16c0-.72 0-2.16.722-2.88.722-.72 5.053-5.761 15.16-9.361C62.08 3.6 51.253 0 40.425 0 29.597 0 18.769 7.92 18.769 7.92z"/></g><path stroke="#46465F" stroke-dasharray="5,5,5,5" stroke-linecap="round" stroke-width="2" d="M80.26 95.009c-4.93 5.802-6.98 11.123-5.168 15.01 4.418 9.473 30.096 6.848 57.355-5.863 27.26-12.712 45.776-30.695 41.359-40.168-1.999-4.286-8.351-6.096-17.233-5.614"/><g stroke="#46465F" transform="translate(151.458 41.845)"><path fill="#FFF" d="M6.265 17.39s6.266-7.689 6.266-11.14C12.53 2.798 9.726 0 6.265 0 2.805 0 0 2.798 0 6.25 0 9.7 6.265 17.39 6.265 17.39z"/><ellipse cx="5.996" cy="5.989" fill="#5698D3" rx="2.996" ry="2.989"/></g><g stroke="#46465F" transform="translate(111.776 92.385)"><path fill="#FFF" d="M6.265 17.39s6.266-7.689 6.266-11.14C12.53 2.798 9.726 0 6.265 0 2.805 0 0 2.798 0 6.25 0 9.7 6.265 17.39 6.265 17.39z"/><ellipse cx="5.996" cy="5.989" fill="#5698D3" rx="2.996" ry="2.989"/></g><g stroke="#46465F" transform="translate(74.184 77.169)"><path fill="#FFF" d="M6.265 17.39s6.266-7.689 6.266-11.14C12.53 2.798 9.726 0 6.265 0 2.805 0 0 2.798 0 6.25 0 9.7 6.265 17.39 6.265 17.39z"/><ellipse cx="5.996" cy="5.989" fill="#5698D3" rx="2.996" ry="2.989"/></g><path fill="#46465F" d="M47.943 129.339h135.113v1.087H47.943z"/></g></svg>