<svg id="Layer_1" data-name="Layer 1" xmlns="http://www.w3.org/2000/svg" viewBox="0 0 104 104"><defs><style>.cls-1{fill:#fff}.cls-2{fill:#46465f}.cls-3{fill:#5698d3}.cls-4{fill:#dde2e6}</style></defs><title>Fleet Config</title><path class="cls-1" d="M7 77.72v2a6.19 6.19 0 0 0 6.19 6.19h77.62a6.19 6.19 0 0 0 6.19-6.2v-1l-2.22-1.19V65.79a5.9 5.9 0 0 0-1.08-3.4L82.22 46.27a5.86 5.86 0 0 0-4.78-2.47H7z"/><path class="cls-2" d="M90.81 86.9H13.19A7.2 7.2 0 0 1 6 79.71V43.8a1 1 0 0 1 1-1h70.44A6.89 6.89 0 0 1 83 45.69l11.51 16.12a6.83 6.83 0 0 1 1.27 4V77l1.69.91a1 1 0 0 1 .53.88v1a7.2 7.2 0 0 1-7.19 7.11zM8 44.8v34.91a5.2 5.2 0 0 0 5.19 5.19h77.62A5.2 5.2 0 0 0 96 79.71v-.37l-1.69-.91a1 1 0 0 1-.53-.88V65.79a4.83 4.83 0 0 0-.9-2.82L81.41 46.85a4.9 4.9 0 0 0-4-2.05z"/><path class="cls-3" d="M13.19 34.43h48.3a6.19 6.19 0 0 1 6.19 6.19v30.45H7V40.62a6.19 6.19 0 0 1 6.19-6.19z"/><path class="cls-2" d="M67.68 72.07H7a1 1 0 0 1-1-1V40.62a7.2 7.2 0 0 1 7.19-7.19h48.3a7.19 7.19 0 0 1 7.19 7.19v30.45a1 1 0 0 1-1 1zM8 70.07h58.68V40.62a5.19 5.19 0 0 0-5.19-5.19h-48.3A5.19 5.19 0 0 0 8 40.62z"/><path class="cls-3" d="M72.62 51.74v9.69a1.81 1.81 0 0 0 1.81 1.8h9.69a1.81 1.81 0 0 0 1.8-1.8 1.83 1.83 0 0 0-.34-1.06l-7-9.68a1.81 1.81 0 0 0-1.47-.75h-2.68a1.81 1.81 0 0 0-1.81 1.8z"/><path class="cls-2" d="M84.12 64.23h-9.69a2.81 2.81 0 0 1-2.81-2.8v-9.69a2.81 2.81 0 0 1 2.81-2.8h2.72a2.79 2.79 0 0 1 2.28 1.17l7 9.68a2.77 2.77 0 0 1 .53 1.64 2.81 2.81 0 0 1-2.84 2.8zm-9.69-13.29a.81.81 0 0 0-.81.8v9.69a.81.81 0 0 0 .81.8h9.69a.8.8 0 0 0 .65-1.23l-7-9.69a.81.81 0 0 0-.66-.33z"/><circle class="cls-4" cx="23.88" cy="85.39" r="8.18"/><path class="cls-2" d="M23.88 94.57a9.18 9.18 0 1 1 9.18-9.18 9.19 9.19 0 0 1-9.18 9.18zm0-16.36a7.18 7.18 0 1 0 7.18 7.18 7.2 7.2 0 0 0-7.18-7.18z"/><circle class="cls-4" cx="81.49" cy="85.39" r="8.18"/><path class="cls-2" d="M81.49 94.57a9.18 9.18 0 1 1 9.18-9.18 9.19 9.19 0 0 1-9.18 9.18zm0-16.36a7.18 7.18 0 1 0 7.18 7.18 7.19 7.19 0 0 0-7.18-7.18z"/><path class="cls-1" d="M35.89 51.62a3.42 3.42 0 0 1-3.53-3.31v-2.13a2.73 2.73 0 0 0-1.45-2.33 3.06 3.06 0 0 0-3 0l-1.92.9a3.62 3.62 0 0 1-1.81.5 3.49 3.49 0 0 1-3-1.64L19.57 41a2.93 2.93 0 0 1-.49-2.33 3.4 3.4 0 0 1 1.7-2.17l2-1.09a2.62 2.62 0 0 0 0-4.66l-.21-.1-1.78-1a3.44 3.44 0 0 1-1.21-4.58l1.62-2.57a3.54 3.54 0 0 1 3-1.64 3.49 3.49 0 0 1 1.72.46l2.08 1a2.82 2.82 0 0 0 1.42.36 3 3 0 0 0 1.58-.47A2.66 2.66 0 0 0 32.38 20v-2a3.16 3.16 0 0 1 .94-2.26 3.62 3.62 0 0 1 2.57-1h3.25a3.43 3.43 0 0 1 3.53 3.31v2.12a2.68 2.68 0 0 0 1.45 2.33 2.89 2.89 0 0 0 1.51.41 3.05 3.05 0 0 0 1.5-.39l1.93-1.05a3.57 3.57 0 0 1 1.8-.5 3.51 3.51 0 0 1 3 1.63l1.61 2.56a2.9 2.9 0 0 1 .49 2.33 3.4 3.4 0 0 1-1.69 2.18l-2 1.07a2.75 2.75 0 0 0 0 4.86l2 1.07a3.6 3.6 0 0 1 1.19 4.73v.08l-1.63 2.42a3.45 3.45 0 0 1-3 1.63 3.71 3.71 0 0 1-1.79-.47l-2-1.07A3.08 3.08 0 0 0 44 44a2.69 2.69 0 0 0-1.4 2.27v2a3.15 3.15 0 0 1-.94 2.28 3.6 3.6 0 0 1-2.56 1z"/><path class="cls-2" d="M39.14 15.63a2.46 2.46 0 0 1 2.53 2.31v2.2a3.7 3.7 0 0 0 1.93 3.11 4 4 0 0 0 2 .55 4.08 4.08 0 0 0 2-.5l1.95-1.07a2.6 2.6 0 0 1 1.27-.34A2.52 2.52 0 0 1 53 23l1.61 2.56v.1a1.85 1.85 0 0 1 .3 1.45 2.43 2.43 0 0 1-1.21 1.56l-1.94 1.06a3.74 3.74 0 0 0 0 6.6l1.94 1.06a2.61 2.61 0 0 1 .84 3.41L53 43.36a2.41 2.41 0 0 1-2.09 1.12 2.69 2.69 0 0 1-1.33-.36l-1.92-1a4.07 4.07 0 0 0-2-.54 4 4 0 0 0-2 .54 3.69 3.69 0 0 0-1.94 3.11v2.07a2.12 2.12 0 0 1-.72 1.56 2.57 2.57 0 0 1-1.85.76h-3.26a2.46 2.46 0 0 1-2.53-2.31v-2.2A3.72 3.72 0 0 0 31.43 43a4.06 4.06 0 0 0-4 0l-1.85.86h-.15a2.49 2.49 0 0 1-1.24.34A2.52 2.52 0 0 1 22 43.07l-1.62-2.56a1.82 1.82 0 0 1-.33-1.51 2.43 2.43 0 0 1 1.21-1.56l2-1.08a3.61 3.61 0 0 0 0-6.43L23 29.8l-1.72-1a2.45 2.45 0 0 1-.87-3.22L22 23a2.53 2.53 0 0 1 2.15-1.18 2.44 2.44 0 0 1 1.23.33h.13l1.95.91a4 4 0 0 0 1.91.48 4.05 4.05 0 0 0 2-.55A3.72 3.72 0 0 0 33.38 20v-2.08a2.09 2.09 0 0 1 .62-1.53 2.59 2.59 0 0 1 1.86-.76h3.25m0-2h-3.22a4.41 4.41 0 0 0-4.51 4.31v2a1.69 1.69 0 0 1-.91 1.44 2.11 2.11 0 0 1-1.06.29 2 2 0 0 1-1-.26l-2-.94a4.44 4.44 0 0 0-2.21-.59A4.55 4.55 0 0 0 20.35 22l-1.64 2.57v.09a4.45 4.45 0 0 0 1.59 5.93l2 1.13a1.6 1.6 0 0 1 .89 1.44 1.62 1.62 0 0 1-.89 1.44l-2 1.08a4.45 4.45 0 0 0-2.19 2.84 3.85 3.85 0 0 0 .62 3.09l1.62 2.56a4.51 4.51 0 0 0 6.06 1.5l1.88-.88h.1a2 2 0 0 1 1-.26 2 2 0 0 1 1.06.29 1.69 1.69 0 0 1 .91 1.44v2.13a4.44 4.44 0 0 0 4.53 4.31h3.25a4.4 4.4 0 0 0 4.5-4.33v-2a1.71 1.71 0 0 1 .91-1.45 2.07 2.07 0 0 1 2.08 0l1.95 1.06a4.71 4.71 0 0 0 2.28.6 4.42 4.42 0 0 0 3.81-2.1l1.65-2.58.06-.12a4.6 4.6 0 0 0-1.61-6l-2-1.09a1.75 1.75 0 0 1 0-3.09l2-1.07a4.42 4.42 0 0 0 2.2-2.84 3.87 3.87 0 0 0-.62-3.08L54.67 22a4.5 4.5 0 0 0-6.09-1.48l-1.95 1.06a2 2 0 0 1-2.05 0 1.71 1.71 0 0 1-.91-1.45v-2.19a4.44 4.44 0 0 0-4.53-4.31z"/><circle class="cls-3" cx="37.51" cy="33.12" r="4.74"/><path class="cls-2" d="M37.51 29.39a3.74 3.74 0 1 1-3.74 3.73 3.73 3.73 0 0 1 3.74-3.73m0-2a5.74 5.74 0 1 0 5.73 5.73 5.74 5.74 0 0 0-5.73-5.73z"/></svg>